#!OML:ASF F:\VICON\USERDATA\INSTALL\rory3\rory3.ASF
:FULLY-SPECIFIED
:DEGREES
617
root -16.3377 17.9844 7.43799 11.4929 47.9101 4.21397
lowerback 3.60952 1.31957 2.70342
upperback 2.53215 1.85623 1.88013
thorax 0.599544 0.958667 0.358179
lowerneck -4.94284 7.03473 -0.340971
upperneck 29.7574 11.3715 -2.12031
head 10.4411 5.20352 0.508962
rclavicle 2.8625e-014 -1.59028e-014
rhumerus -34.6171 -6.41061 -76.605
rradius 30.3795
rwrist -6.03324
rhand -11.7853 16.2611
rfingers 7.12502
rthumb 14.2639 -13.2291
lclavicle 2.8625e-014 -1.59028e-014
lhumerus -35.903 -12.3857 90.8423
lradius 49.0576
lwrist 17.4733
lhand -3.92413 26.9881
lfingers 7.12502
lthumb 21.8268 55.7772
rfemur -22.694 -10.6372 25.6485
rtibia 26.2306
rfoot -29.2346 -29.8141
rtoes 28.2886
lfemur -17.8334 18.8577 -30.0179
ltibia 35.8952
lfoot -26.1415 18.9723
ltoes -10.5618
618
root -16.3602 17.9783 7.43906 11.4554 48.7307 4.1359
lowerback 3.52999 1.32397 2.66259
upperback 2.538 1.85819 1.9167
thorax 0.64741 0.959629 0.420645
lowerneck -4.95224 7.04721 -0.394007
upperneck 29.6675 11.3715 -2.03117
head 10.3992 5.21209 0.546667
rclavicle -8.38871e-014 1.90833e-014
rhumerus -34.5735 -6.3305 -76.5873
rradius 30.441
rwrist -6.19976
rhand -11.9069 16.2125
rfingers 7.12502
rthumb 14.1468 -13.2858
lclavicle -8.38871e-014 1.90833e-014
lhumerus -35.9095 -12.3249 90.9231
lradius 48.8518
lwrist 17.3547
lhand -3.90729 27.1617
lfingers 7.12502
lthumb 21.843 55.9489
rfemur -22.7757 -10.908 25.8504
rtibia 26.2935
rfoot -29.5531 -30.1828
rtoes 28.5734
lfemur -17.7354 19.0535 -30.1092
ltibia 35.5286
lfoot -26.2543 19.0624
ltoes -10.1607
619
root -16.3802 17.976 7.43934 11.3901 49.5388 4.08767
lowerback 3.48932 1.34649 2.66303
upperback 2.55254 1.8866 1.90755
thorax 0.685736 0.974531 0.411643
lowerneck -5.04958 7.01526 -0.397852
upperneck 29.6921 11.3076 -1.91613
head 10.4175 5.19483 0.586352
rclavicle 4.17448e-014 -3.18055e-015
rhumerus -34.5323 -6.38099 -76.5876
rradius 30.397
rwrist -6.17306
rhand -12.1056 16.3352
rfingers 7.12502
rthumb 13.9552 -13.1765
lclavicle 4.17448e-014 -3.18055e-015
lhumerus -35.9223 -12.3266 90.9543
lradius 48.6702
lwrist 17.339
lhand -3.79047 27.1992
lfingers 7.12502
lthumb 21.9552 55.9733
rfemur -22.7794 -11.163 26.01
rtibia 26.3464
rfoot -19.219 -35.3091
rtoes 5.42667
lfemur -17.5822 19.2321 -30.1898
ltibia 35.154
lfoot -26.2466 19.0958
ltoes -10.9112
620
root -16.4024 17.9728 7.43835 11.3613 50.3813 4.02409
lowerback 3.46834 1.36503 2.68016
upperback 2.52676 1.91191 1.90661
thorax 0.671891 0.987233 0.400558
lowerneck -5.10939 6.95934 -0.286227
upperneck 29.674 11.2354 -1.96614
head 10.4314 5.17005 0.546777
rclavicle 4.05521e-014 -4.92986e-014
rhumerus -34.5771 -6.4085 -76.6094
rradius 30.4052
rwrist -5.87086
rhand -12.5812 16.3526
rfingers 7.12502
rthumb 13.4968 -13.19
lclavicle 4.05521e-014 -4.92986e-014
lhumerus -35.9719 -12.4399 91.0202
lradius 48.4774
lwrist 17.3495
lhand -3.78546 27.2609
lfingers 7.12502
lthumb 21.96 56.0344
rfemur -22.8548 -11.5456 26.2157
rtibia 26.4065
rfoot -19.5209 -35.6508
rtoes 5.62647
lfemur -17.4874 19.3571 -30.2548
ltibia 34.7631
lfoot -26.2401 19.1148
ltoes -11.7113
621
root -16.4298 17.9652 7.43768 11.3367 51.2697 3.92867
lowerback 3.45584 1.34126 2.61764
upperback 2.46714 1.88016 1.94343
thorax 0.613857 0.969589 0.473229
lowerneck -5.15629 6.93813 -0.0931348
upperneck 29.6761 11.2142 -2.06135
head 10.4593 5.17186 0.483612
rclavicle 7.95139e-015 -9.54166e-015
rhumerus -34.6689 -6.33468 -76.6345
rradius 30.5246
rwrist -5.85227
rhand -12.9431 16.3401
rfingers 7.12502
rthumb 13.1481 -13.2254
lclavicle 7.95139e-015 -9.54166e-015
lhumerus -36.0343 -12.4187 91.038
lradius 48.1713
lwrist 17.1292
lhand -3.84801 27.1993
lfingers 7.12502
lthumb 21.8999 55.9798
rfemur -22.9849 -11.8104 26.426
rtibia 26.5089
rfoot -28.346 -32.1987
rtoes 24.2735
lfemur -17.4328 19.4715 -30.2944
ltibia 34.337
lfoot -26.0107 19.3977
ltoes -12.9406
622
root -16.4568 17.9569 7.43915 11.3367 52.1355 3.93188
lowerback 3.43767 1.28431 2.41793
upperback 2.45337 1.79946 1.99342
thorax 0.600929 0.926626 0.638307
lowerneck -5.26885 6.94552 0.0945348
upperneck 29.7049 11.2483 -2.19777
head 10.5137 5.19113 0.416662
rclavicle 7.95139e-015 -1.11319e-014
rhumerus -34.6001 -6.20514 -76.6459
rradius 30.5416
rwrist -6.03391
rhand -13.2642 16.4848
rfingers 7.12502
rthumb 12.8385 -13.1004
lclavicle 7.95139e-015 -1.11319e-014
lhumerus -36.0602 -12.2396 90.9884
lradius 47.8166
lwrist 17.0432
lhand -3.75069 26.9145
lfingers 7.12502
lthumb 21.9933 55.6841
rfemur -23.0872 -12.1175 26.5792
rtibia 26.6398
rfoot -33.7539 -31.0379
rtoes 32.1582
lfemur -17.3048 19.5141 -30.3736
ltibia 33.878
lfoot -25.7761 19.7299
ltoes -13.6881
623
root -16.4789 17.9465 7.43945 11.3472 52.9661 3.9601
lowerback 3.37453 1.28781 2.36662
upperback 2.45948 1.80018 1.93961
thorax 0.642529 0.927041 0.613545
lowerneck -4.81235 7.23621 0.907967
upperneck 29.5923 11.7424 -2.8743
head 10.4946 5.44854 0.0807015
rclavicle -6.32135e-014 3.65764e-014
rhumerus -34.4922 -6.48997 -76.6328
rradius 30.3948
rwrist -5.94428
rhand -13.5892 16.5873
rfingers 7.12502
rthumb 12.5252 -13.0173
lclavicle -6.32135e-014 3.65764e-014
lhumerus -36.0536 -12.2919 90.8836
lradius 47.4758
lwrist 17.0895
lhand -3.62042 26.7655
lfingers 7.12502
lthumb 22.1184 55.5203
rfemur -23.1792 -12.5066 26.7126
rtibia 26.762
rfoot -34.4271 -31.1573
rtoes 32.8673
lfemur -17.0953 19.0236 -30.4719
ltibia 33.3921
lfoot -26.5101 19.6671
ltoes -10.9107
624
root -16.5011 17.9374 7.43531 11.2947 53.8128 3.91647
lowerback 3.3552 1.29612 2.3762
upperback 2.45213 1.81123 1.91779
thorax 0.646849 0.932931 0.585929
lowerneck -4.67437 6.88695 -1.41282
upperneck 28.8998 10.8642 -0.622308
head 9.89458 5.06311 1.10614
rclavicle -1.04958e-013 6.36111e-015
rhumerus -34.4626 -6.69559 -76.5702
rradius 30.3633
rwrist -5.86086
rhand -13.6176 16.6082
rfingers 7.12502
rthumb 12.4978 -12.9981
lclavicle -1.04958e-013 6.36111e-015
lhumerus -36.062 -12.2845 90.8206
lradius 47.1581
lwrist 16.9108
lhand -3.64122 26.7858
lfingers 7.12502
lthumb 22.0985 55.5431
rfemur -23.265 -12.8793 26.8721
rtibia 26.8628
rfoot -34.9327 -31.2925
rtoes 33.4144
lfemur -16.8612 18.3122 -30.5029
ltibia 32.8752
lfoot -27.608 19.4515
ltoes -7.02518
625
root -16.5198 17.9341 7.42971 11.1295 54.6638 3.62965
lowerback 3.23103 1.27593 2.48105
upperback 2.4148 1.7837 1.97214
thorax 0.679319 0.920345 0.586409
lowerneck -4.83089 6.92333 -0.60698
upperneck 29.1703 11.0629 -1.40258
head 10.1274 5.1493 0.748239
rclavicle 8.26944e-014 1.43125e-014
rhumerus -34.443 -6.67364 -76.504
rradius 30.3975
rwrist -6.10847
rhand -13.4593 16.532
rfingers 7.12502
rthumb 12.6504 -13.0649
lclavicle 8.26944e-014 1.43125e-014
lhumerus -36.1304 -12.2073 90.7892
lradius 46.8722
lwrist 16.6801
lhand -3.70661 26.9151
lfingers 7.12502
lthumb 22.0357 55.6797
rfemur -23.4447 -13.4411 27.2302
rtibia 26.9341
rfoot -35.0142 -31.544
rtoes 33.2074
lfemur -16.7726 18.1197 -30.3652
ltibia 32.3357
lfoot -28.3209 19.1692
ltoes -4.22944
626
root -16.5348 17.9291 7.42841 10.94 55.3822 3.28537
lowerback 3.02496 1.28819 2.55483
upperback 2.38312 1.79456 2.01994
thorax 0.762901 0.926907 0.598819
lowerneck -4.83681 6.88125 -0.662925
upperneck 29.1289 10.9914 -1.31483
head 10.103 5.12329 0.779572
rclavicle 3.49861e-014 -1.90833e-014
rhumerus -34.4124 -6.54019 -76.4861
rradius 30.4513
rwrist -6.53492
rhand -13.2801 16.3344
rfingers 7.12502
rthumb 12.8232 -13.2517
lclavicle 3.49861e-014 -1.90833e-014
lhumerus -36.2177 -12.1277 90.7384
lradius 46.5551
lwrist 16.4838
lhand -3.8005 27.1438
lfingers 7.12502
lthumb 21.9455 55.919
rfemur -23.6274 -13.9421 27.6083
rtibia 26.9782
rfoot -34.8029 -31.8075
rtoes 32.7519
lfemur -16.7638 17.9993 -30.2038
ltibia 31.7861
lfoot -28.6578 19.6172
ltoes -3.47178
627
root -16.5508 17.9236 7.42669 10.721 56.0666 3.03005
lowerback 2.9211 1.33001 2.57725
upperback 2.39086 1.84679 2.05083
thorax 0.829108 0.953877 0.619822
lowerneck -4.74421 6.84411 -0.987551
upperneck 28.898 10.8601 -0.931905
head 9.95318 5.07888 0.937741
rclavicle -8.50798e-014 2.22639e-014
rhumerus -34.3526 -6.64394 -76.4046
rradius 30.4419
rwrist -6.60149
rhand -13.3298 16.3003
rfingers 7.12502
rthumb 12.7753 -13.2889
lclavicle -8.50798e-014 2.22639e-014
lhumerus -36.2387 -12.1102 90.6898
lradius 46.2433
lwrist 16.3884
lhand -3.79741 27.3348
lfingers 7.12502
lthumb 21.9485 56.1096
rfemur -23.6938 -14.3585 27.8842
rtibia 27.0103
rfoot -34.5288 -32.0185
rtoes 32.5136
lfemur -16.6342 17.5709 -30.0547
ltibia 31.2225
lfoot -28.7516 20.4315
ltoes -3.7154
628
root -16.569 17.9168 7.42365 10.5255 56.7589 2.89831
lowerback 2.91221 1.33783 2.47403
upperback 2.41192 1.85494 2.0942
thorax 0.850924 0.956981 0.722334
lowerneck -4.56529 6.85306 -1.16763
upperneck 28.6136 10.8197 -0.73656
head 9.79067 5.07373 1.01135
rclavicle -7.15625e-014 4.92986e-014
rhumerus -34.2969 -6.73141 -76.3233
rradius 30.4246
rwrist -6.50931
rhand -13.0639 16.3837
rfingers 7.12502
rthumb 13.0316 -13.1892
lclavicle -7.15625e-014 4.92986e-014
lhumerus -36.2248 -11.8724 90.5805
lradius 45.863
lwrist 16.3396
lhand -3.77533 27.2954
lfingers 7.12502
lthumb 21.9697 56.0678
rfemur -23.6709 -14.6375 28.0332
rtibia 27.0538
rfoot -34.3306 -32.2899
rtoes 32.2608
lfemur -16.3974 17.279 -29.9591
ltibia 30.6605
lfoot -28.8382 20.7946
ltoes -3.56185
629
root -16.5862 17.9059 7.42441 10.4508 57.3998 2.88827
lowerback 2.85973 1.34473 2.25043
upperback 2.40821 1.85769 2.09466
thorax 0.86907 0.955509 0.848901
lowerneck -4.64689 6.80887 -0.700806
upperneck 28.7934 10.8768 -1.28694
head 9.9375 5.08815 0.766025
rclavicle -1.90833e-014 1.59028e-015
rhumerus -34.284 -6.70272 -76.35
rradius 30.3955
rwrist -6.50152
rhand -12.5637 16.5191
rfingers 7.12502
rthumb 13.5137 -13.0224
lclavicle -1.90833e-014 1.59028e-015
lhumerus -36.3026 -11.6734 90.4007
lradius 45.513
lwrist 16.3203
lhand -3.73663 27.4017
lfingers 7.12502
lthumb 22.0069 56.1697
rfemur -23.7094 -14.5984 27.9996
rtibia 27.1805
rfoot -34.6422 -32.4716
rtoes 32.4365
lfemur -16.1283 17.0834 -29.9362
ltibia 30.1046
lfoot -29.2933 20.7515
ltoes -2.04435
630
root -16.607 17.8963 7.42639 10.3711 58.0145 2.84711
lowerback 2.80418 1.40772 2.07558
upperback 2.42534 1.9356 2.05411
thorax 0.913259 0.992642 0.905336
lowerneck -4.83581 6.74456 -0.505526
upperneck 28.9432 10.807 -1.36364
head 10.0445 5.06343 0.715836
rclavicle -8.01102e-014 3.26007e-014
rhumerus -34.2572 -6.05805 -76.4984
rradius 30.4874
rwrist -6.9822
rhand -12.482 16.3988
rfingers 7.12502
rthumb 13.5925 -13.1374
lclavicle -8.01102e-014 3.26007e-014
lhumerus -36.3182 -11.7498 90.2244
lradius 45.1732
lwrist 16.3546
lhand -3.7561 27.4213
lfingers 7.12502
lthumb 21.9882 56.1916
rfemur -23.8425 -14.5433 28.0034
rtibia 27.435
rfoot -35.0457 -32.5823
rtoes 32.5848
lfemur -15.8838 16.8816 -29.8751
ltibia 29.543
lfoot -29.5519 20.7045
ltoes -0.606258
631
root -16.6373 17.8908 7.42342 10.493 58.7223 3.00095
lowerback 2.86402 1.41965 1.76862
upperback 2.39425 1.94801 2.02606
thorax 0.83831 0.994382 1.0454
lowerneck -4.88468 6.70916 -0.513345
upperneck 28.9441 10.7536 -1.31191
head 10.0496 5.04503 0.732299
rclavicle 4.75095e-014 -1.51076e-014
rhumerus -34.2398 -4.73456 -76.7107
rradius 30.6395
rwrist -7.7199
rhand -12.7285 15.9895
rfingers 7.12502
rthumb 13.3549 -13.5625
lclavicle 4.75095e-014 -1.51076e-014
lhumerus -36.2874 -11.7453 90.038
lradius 44.7819
lwrist 16.4146
lhand -3.7542 27.3654
lfingers 7.12502
lthumb 21.99 56.1354
rfemur -24.1004 -15.1902 28.1858
rtibia 27.7457
rfoot -34.3648 -33.0806
rtoes 31.1554
lfemur -15.703 16.606 -29.9204
ltibia 28.9959
lfoot -29.3181 20.8872
ltoes -0.742125
